M48
; DRILL file {KiCad 9.0.4} date 2025-11-20T15:17:58+0100
; FORMAT={-:-/ absolute / metric / decimal}
; #@! TF.CreationDate,2025-11-20T15:17:58+01:00
; #@! TF.GenerationSoftware,Kicad,Pcbnew,9.0.4
; #@! TF.FileFunction,MixedPlating,1,2
FMAT,2
METRIC
; #@! TA.AperFunction,Plated,PTH,ComponentDrill
T1C1.000
; #@! TA.AperFunction,Plated,PTH,ComponentDrill
T2C1.100
; #@! TA.AperFunction,NonPlated,NPTH,ComponentDrill
T3C3.200
%
G90
G05
T1
X5.78Y82.36
X5.78Y79.82
X5.78Y54.42
X5.78Y51.88
X5.78Y49.34
X5.78Y46.8
X5.78Y44.26
X5.78Y41.72
X5.78Y39.18
X5.78Y36.64
X5.78Y34.1
X5.78Y31.56
X5.78Y29.02
X5.78Y26.48
X5.78Y23.94
X5.78Y21.4
X5.78Y18.86
X5.78Y16.32
X5.78Y13.78
X5.78Y11.24
X5.78Y8.7
X5.995Y90.615
X8.32Y54.42
X8.32Y51.88
X8.32Y49.34
X8.32Y46.8
X8.32Y44.26
X8.32Y41.72
X8.32Y39.18
X8.32Y36.64
X8.32Y34.1
X8.32Y31.56
X8.32Y29.02
X8.32Y26.48
X8.32Y23.94
X8.32Y21.4
X8.32Y18.86
X8.32Y16.32
X8.32Y13.78
X8.32Y11.24
X8.32Y8.7
X8.535Y90.615
X11.075Y90.615
X22.29Y49.34
X22.29Y46.8
X24.83Y49.34
X24.83Y46.8
X27.37Y49.34
X27.37Y46.8
X29.91Y49.34
X29.91Y46.8
X35.625Y90.615
X36.895Y83.63
X36.895Y46.165
X38.165Y90.615
X39.435Y83.63
X39.435Y46.165
X40.705Y90.615
X45.92Y90.615
X48.46Y90.615
X50.23Y83.63
X50.23Y81.09
X50.23Y78.55
X50.23Y76.01
X51.0Y90.615
X53.54Y90.615
X56.08Y90.615
X58.62Y90.615
X59.12Y67.12
X59.12Y64.58
X61.16Y90.615
X63.7Y90.615
X64.2Y77.28
X64.2Y74.74
X64.2Y72.2
X64.2Y69.66
X64.2Y67.12
X64.2Y64.58
X66.24Y90.615
X66.74Y54.42
X66.74Y51.88
X66.74Y49.34
X66.74Y46.8
X66.74Y44.26
X66.74Y41.72
X66.74Y39.18
X66.74Y36.64
X66.74Y34.1
X66.74Y31.56
X66.74Y29.02
X66.74Y26.48
X66.74Y23.94
X66.74Y21.4
X66.74Y18.86
X66.74Y16.32
X66.74Y13.78
X66.74Y11.24
X66.74Y8.7
X68.78Y90.615
X69.28Y82.36
X69.28Y79.82
X69.28Y54.42
X69.28Y51.88
X69.28Y49.34
X69.28Y46.8
X69.28Y44.26
X69.28Y41.72
X69.28Y39.18
X69.28Y36.64
X69.28Y34.1
X69.28Y31.56
X69.28Y29.02
X69.28Y26.48
X69.28Y23.94
X69.28Y21.4
X69.28Y18.86
X69.28Y16.32
X69.28Y13.78
X69.28Y11.24
X69.28Y8.7
X71.32Y90.615
T2
X13.4Y53.4
X13.4Y50.86
X13.4Y48.32
X13.4Y45.78
X13.4Y43.24
X13.4Y40.7
X13.4Y38.16
X13.4Y35.62
X13.4Y33.08
X13.4Y30.54
X13.4Y26.48
X13.4Y23.94
X13.4Y21.4
X13.4Y18.86
X13.4Y16.32
X13.4Y13.78
X13.4Y11.24
X13.4Y8.7
X61.66Y44.26
X61.66Y41.72
X61.66Y39.18
X61.66Y36.64
X61.66Y34.1
X61.66Y31.56
X61.66Y29.02
X61.66Y26.48
X61.66Y21.4
X61.66Y18.86
X61.66Y16.32
X61.66Y13.78
X61.66Y11.24
X61.66Y8.7
T3
X2.605Y95.06
X2.605Y2.35
X13.4Y56.96
X28.64Y6.16
X61.66Y58.23
X73.09Y95.06
X73.09Y2.35
M30
