M48
; DRILL file {KiCad 9.0.4} date 2025-11-21T10:02:42+0100
; FORMAT={-:-/ absolute / inch / decimal}
; #@! TF.CreationDate,2025-11-21T10:02:42+01:00
; #@! TF.GenerationSoftware,Kicad,Pcbnew,9.0.4
; #@! TF.FileFunction,MixedPlating,1,2
FMAT,2
INCH
; #@! TA.AperFunction,Plated,PTH,ComponentDrill
T1C0.0394
; #@! TA.AperFunction,Plated,PTH,ComponentDrill
T2C0.1260
%
G90
G05
T1
X0.2276Y3.2425
X0.2276Y3.1425
X0.2276Y2.1425
X0.2276Y2.0425
X0.2276Y1.9425
X0.2276Y1.8425
X0.2276Y1.7425
X0.2276Y1.6425
X0.2276Y1.5425
X0.2276Y1.4425
X0.2276Y1.3425
X0.2276Y1.2425
X0.2276Y1.1425
X0.2276Y1.0425
X0.2276Y0.9425
X0.2276Y0.8425
X0.2276Y0.7425
X0.2276Y0.6425
X0.2276Y0.5425
X0.2276Y0.4425
X0.2276Y0.3425
X0.236Y3.5675
X0.3276Y2.1425
X0.3276Y2.0425
X0.3276Y1.9425
X0.3276Y1.8425
X0.3276Y1.7425
X0.3276Y1.6425
X0.3276Y1.5425
X0.3276Y1.4425
X0.3276Y1.3425
X0.3276Y1.2425
X0.3276Y1.1425
X0.3276Y1.0425
X0.3276Y0.9425
X0.3276Y0.8425
X0.3276Y0.7425
X0.3276Y0.6425
X0.3276Y0.5425
X0.3276Y0.4425
X0.3276Y0.3425
X0.336Y3.5675
X0.436Y3.5675
X0.5276Y2.1024
X0.5276Y2.0024
X0.5276Y1.9024
X0.5276Y1.8024
X0.5276Y1.7024
X0.5276Y1.6024
X0.5276Y1.5024
X0.5276Y1.4024
X0.5276Y1.3024
X0.5276Y1.2024
X0.5276Y1.0425
X0.5276Y0.9425
X0.5276Y0.8425
X0.5276Y0.7425
X0.5276Y0.6425
X0.5276Y0.5425
X0.5276Y0.4425
X0.5276Y0.3425
X0.8776Y1.9425
X0.8776Y1.8425
X0.9776Y1.9425
X0.9776Y1.8425
X1.0776Y1.9425
X1.0776Y1.8425
X1.1776Y1.9425
X1.1776Y1.8425
X1.4026Y3.5675
X1.4526Y3.2925
X1.4526Y1.8175
X1.5026Y3.5675
X1.5526Y3.2925
X1.5526Y1.8175
X1.6026Y3.5675
X1.8079Y3.5675
X1.9079Y3.5675
X1.9776Y3.2925
X1.9776Y3.1925
X1.9776Y3.0925
X1.9776Y2.9925
X2.0079Y3.5675
X2.1079Y3.5675
X2.2079Y3.5675
X2.3079Y3.5675
X2.3276Y2.6425
X2.3276Y2.5425
X2.4079Y3.5675
X2.4276Y1.7425
X2.4276Y1.6425
X2.4276Y1.5425
X2.4276Y1.4425
X2.4276Y1.3425
X2.4276Y1.2425
X2.4276Y1.1425
X2.4276Y1.0425
X2.4276Y0.8425
X2.4276Y0.7425
X2.4276Y0.6425
X2.4276Y0.5425
X2.4276Y0.4425
X2.4276Y0.3425
X2.5079Y3.5675
X2.5276Y3.0425
X2.5276Y2.9425
X2.5276Y2.8425
X2.5276Y2.7425
X2.5276Y2.6425
X2.5276Y2.5425
X2.6079Y3.5675
X2.6276Y2.1425
X2.6276Y2.0425
X2.6276Y1.9425
X2.6276Y1.8425
X2.6276Y1.7425
X2.6276Y1.6425
X2.6276Y1.5425
X2.6276Y1.4425
X2.6276Y1.3425
X2.6276Y1.2425
X2.6276Y1.1425
X2.6276Y1.0425
X2.6276Y0.9425
X2.6276Y0.8425
X2.6276Y0.7425
X2.6276Y0.6425
X2.6276Y0.5425
X2.6276Y0.4425
X2.6276Y0.3425
X2.7079Y3.5675
X2.7276Y3.2425
X2.7276Y3.1425
X2.7276Y2.1425
X2.7276Y2.0425
X2.7276Y1.9425
X2.7276Y1.8425
X2.7276Y1.7425
X2.7276Y1.6425
X2.7276Y1.5425
X2.7276Y1.4425
X2.7276Y1.3425
X2.7276Y1.2425
X2.7276Y1.1425
X2.7276Y1.0425
X2.7276Y0.9425
X2.7276Y0.8425
X2.7276Y0.7425
X2.7276Y0.6425
X2.7276Y0.5425
X2.7276Y0.4425
X2.7276Y0.3425
X2.8079Y3.5675
T2
X0.1026Y3.7425
X0.1026Y0.0925
X0.5276Y2.2425
X1.1276Y0.2425
X2.4276Y2.2925
X2.8776Y3.7425
X2.8776Y0.0925
M30
